<svg xmlns="http://www.w3.org/2000/svg" width="800" height="300" viewBox="0 0 211.667 79.375"><path d="M10.49 53.873c0-.041 7.798-.662 21.755-.225 5.828.181 14.64.451 22.774 2.33 4.289.987 8.95 2.771 12.855 5.995 2.412 2.012 4.335 4.531 6.62 6.592 2.336 2.142 5.487 3.367 8.906 4.124 7.353 1.603 14.703 1.787 23.152 2.106 13.682.507 27.048.606 42.513.69 13.186.07 26.236.064 40.452.05 5.702-.007 11.726-.085 17.613.04.688.006 1.513-.012 2.438.154.376-.069.903.41 1.399 1.484.032.66.018 1.255.045 1.784.064.327-.147.776-.649 1.314-.6.297-.963.37-1.039.32-1.375.154-2.681.125-3.914.137-4.603.055-9.217.067-13.886.062-4.822-.006-11.68-.04-16.501-.046-54.289-.093-103.257-.292-140.078-.548-7.566-.053-13.663-.078-20.25-.224-3.768-.082-7.068-.121-10.501-.566-1.414-.123-3.072-.32-4.313-1.506a2.863 2.863 0 01-.703-1.389c-.11-.545-.124-1.06-.138-1.512-.267-7.095-.434-11.742-.327-16.87.01-.872.006-1.73.31-2.591.302-.767.94-1.269 1.6-1.497 1.213-.416 2.542-.418 3.493-.435 4.175-.095 6.375.202 6.375.227 0 .108-2.22.105-6.345.399-.955.072-2.237.124-3.254.534-.476.193-.933.564-1.072 1.052-.234.67-.18 1.415-.181 2.316.054 5.225.325 9.582.74 16.8.03.47.044.91.136 1.284.073.288.188.553.364.713.674.787 2.027.792 3.491 1.018 3.334.376 6.563.358 10.35.387 6.671.048 12.555-.006 20.227-.04 36.822-.163 85.79-.237 140.08-.191 5.126.004 11.374.034 16.5.039 4.663.005 9.265-.005 13.853-.057 1.298-.018 2.513.018 3.64-.117.288-.104.178-.005-.11.1-.408.475-.59.804-.532 1.02-.032-.662-.016-1.258-.043-1.785.48.76.663 1.1.732.971-.53-.116-1.207-.082-1.995-.109-5.823-.131-11.835-.063-17.555-.07-14.153-.014-27.34-.054-40.471-.183-15.427-.152-28.903-.335-42.585-.948-8.423-.371-15.922-.643-23.496-2.36-3.625-.809-7.068-2.237-9.748-4.685-2.436-2.257-4.292-4.766-6.487-6.627-3.554-3.043-7.968-4.792-12.08-5.82-7.866-1.958-16.665-2.405-22.455-2.731-13.885-.78-21.704-.707-21.704-.91z" fill="none"/><path d="M-3.398 13.005V1.262l7.49.004c16.751.009 30.573.64 39.209 1.79 6.376.85 11.008 2.02 19.873 5.022 2.746.93 6.183 2.039 7.637 2.464 14.584 4.266 31.29 6.001 66.474 6.904 10.64.273 42.931.582 61.432.588l14.832.004v67.569l-108.473-.055-108.474.055z" fill="#fff" stroke="#0070c0" stroke-width=".704" stroke-linecap="round" stroke-linejoin="round"/></svg>